mtllib ./Neuron.mtl
g Neuron
v 0 0 0
v 2.185569E-08 0 0.5
v 0.5 0 -4.371139E-08
v -5.96244E-09 0 -0.5
v -0.5 0 8.742278E-08
v 0 1 0
v 0 1 0
v 0 1 0
v 0 1 0
v 0 1 0
v 0 1 0
v -0.5 0 0
v 0 1 0
v 2.185569E-08 0 0.5
v 0 1 0
v 0.5 0 -4.371139E-08
v 0 1 0
v -5.96244E-09 0 -0.5
v 0 1 0
v -0.5 0 0

vn 0 -1 0
vn 0 -1 0
vn 0 -1 0
vn 0 -1 0
vn 0 -1 0
vn 0 1 0
vn 0 1 0
vn 0 1 0
vn 0 1 0
vn 0 1 0
vn -1 0 0
vn -1 0 0
vn 4.371139E-08 0 1
vn 4.371139E-08 0 1
vn 1 0 -8.742278E-08
vn 1 0 -8.742278E-08
vn -1.192488E-08 0 -1
vn -1.192488E-08 0 -1
vn -1 0 0
vn -1 0 0

vt 0.5 0.5
vt 0.5 1
vt 0 0.5
vt 0.5 0
vt 1 0.5000001
vt 0.5 0.5
vt 0 0.5
vt 0.5000004 0
vt 1 0.5000002
vt 0.5 1
vt 0 1
vt 0 0
vt 0.25 1
vt 0.25 0
vt 0.5 1
vt 0.5 0
vt 0.75 1
vt 0.75 0
vt 1 1
vt 1 0

usemtl Neuron Inactive
usemap Neuron Inactive
f 2/2/2 1/1/1 3/3/3
f 3/3/3 1/1/1 4/4/4
f 4/4/4 1/1/1 5/5/5
f 5/5/5 1/1/1 2/2/2
f 6/6/6 7/7/7 6/6/6
f 7/7/7 8/8/8 6/6/6
f 8/8/8 9/9/9 6/6/6
f 9/9/9 10/10/10 6/6/6
f 10/10/10 7/7/7 6/6/6
f 12/12/12 13/13/13 11/11/11
f 14/14/14 13/13/13 12/12/12
f 14/14/14 15/15/15 13/13/13
f 16/16/16 15/15/15 14/14/14
f 16/16/16 17/17/17 15/15/15
f 18/18/18 17/17/17 16/16/16
f 18/18/18 19/19/19 17/17/17
f 20/20/20 19/19/19 18/18/18
